<svg width="19" height="19" viewBox="0 0 19 19" fill="none" xmlns="http://www.w3.org/2000/svg">
<path d="M4.55141 4.60144H5.41532C5.73258 4.60144 5.99004 4.39888 5.99004 4.14508V0.455141C5.99004 0.202556 5.73502 0 5.41532 0H4.55141C4.23415 0 3.97546 0.203776 3.97546 0.455141V4.14508C3.97546 4.39888 4.23415 4.60144 4.55141 4.60144Z" fill="#C4C4C4"/>
<path d="M13.5835 4.60144H14.4461C14.7671 4.60144 15.0209 4.39888 15.0209 4.14508V0.455141C15.0209 0.202556 14.7671 0 14.4461 0H13.5835C13.2662 0 13.0087 0.203776 13.0087 0.455141V4.14508C13.0099 4.39888 13.2662 4.60144 13.5835 4.60144Z" fill="#C4C4C4"/>
<path d="M17.9994 1.76074H15.7103V4.58677C15.7103 5.21762 15.1429 5.73133 14.4449 5.73133H13.5822C12.8843 5.73133 12.3157 5.21762 12.3157 4.58677V1.76074H6.67825V4.58677C6.67825 5.21762 6.11085 5.73133 5.41166 5.73133H4.55141C3.85589 5.73133 3.28604 5.21762 3.28604 4.58677V1.76074H0.995697C0.614989 1.76074 0.305054 2.0719 0.305054 2.45383V18.3093C0.305054 18.6913 0.614989 19 0.728469 19H17.7359C18.3826 19 18.6949 18.6913 18.6949 18.3093V2.45139C18.6937 2.0719 18.3813 1.76074 17.9994 1.76074ZM17.6285 17.4332C17.6285 18.1214 17.0355 18.0616 17.0355 18.0616H10.8355C10.8355 18.0616 14.6267 16.1617 17.6285 13.4638C17.6285 13.4638 17.6285 16.6376 17.6285 17.4332ZM17.759 11.5603C17.4991 12.5865 16.9244 13.775 15.8762 12.9977C14.3485 11.8666 12.8428 10.9063 12.6488 13.1808C12.4889 15.0965 8.94785 17.7017 8.17667 18.2459H1.45572C1.33492 18.2459 1.23974 18.1495 1.23974 18.0299V8.25596C1.23974 8.13516 1.33614 8.03876 1.45572 8.03876H17.5431C17.6614 8.03876 17.7603 8.13516 17.7603 8.25596L17.759 11.5603Z" fill="#C4C4C4"/>
<path d="M6.66238 9.7251H3.97546V12.4108H6.66238V9.7251Z" fill="#C4C4C4"/>
<path d="M11.0796 9.7251H8.39508V12.4108H11.0796V9.7251Z" fill="#C4C4C4"/>
<path d="M6.66238 13.7993H3.97546V16.485H6.66238V13.7993Z" fill="#C4C4C4"/>
<path d="M8.39508 16.485H9.17236C9.73976 15.953 10.5976 15.0732 11.0796 14.4692V13.7993H8.39508V16.485Z" fill="#C4C4C4"/>
<path d="M12.6732 10.9917C12.9441 10.7269 13.2699 10.6464 13.5628 10.6464C14.1155 10.6464 14.7244 10.9551 15.3577 11.3736V9.7251H12.6732V10.9917Z" fill="#C4C4C4"/>
</svg>
