<svg width="36" height="36" viewBox="0 0 36 36" fill="none" xmlns="http://www.w3.org/2000/svg">
<g clip-path="url(#clip0)">
<path d="M17.9999 23.1429L13.5462 19.2446L0.8125 30.1603C1.27536 30.5897 1.90021 30.8571 2.58936 30.8571H33.4105C34.0971 30.8571 34.7194 30.5897 35.1796 30.1603L22.4536 19.2446L17.9999 23.1429Z" fill="white"/>
<path d="M35.1881 5.83971C34.7252 5.40771 34.1029 5.14286 33.4112 5.14286H2.59007C1.9035 5.14286 1.28122 5.41029 0.818359 5.84486L18.0006 20.5714L35.1881 5.83971Z" fill="white"/>
<path d="M0 7.40057V28.764L12.4277 18.2031L0 7.40057Z" fill="white"/>
<path d="M23.5723 18.2031L36 28.764V7.39286L23.5723 18.2031Z" fill="white"/>
</g>
<defs>
<clipPath id="clip0">
<rect width="36" height="36" fill="white"/>
</clipPath>
</defs>
</svg>
