<svg width="36" height="36" viewBox="0 0 36 36" fill="none" xmlns="http://www.w3.org/2000/svg">
<path d="M18.0006 0C9.92965 0 3.38672 6.54293 3.38672 14.6138C3.38672 21.9354 12.4919 31.5685 16.3289 35.3031C17.2687 36.2159 18.7546 36.235 19.7127 35.3404C23.5727 31.7423 32.6144 22.4728 32.6144 14.613C32.6136 6.54293 26.0715 0 18.0006 0ZM18.0006 19.3621C14.6636 19.3621 11.9601 16.6586 11.9601 13.3224C11.9601 9.98624 14.6636 7.28192 18.0006 7.28192C21.3367 7.28192 24.0395 9.98545 24.0395 13.3224C24.0395 16.6593 21.3367 19.3621 18.0006 19.3621Z" fill="white"/>
</svg>
