<svg width="28" height="28" viewBox="0 0 28 28" fill="none" xmlns="http://www.w3.org/2000/svg">
<g clip-path="url(#clip0)">
<path d="M20.2381 3.47233C17.9989 1.23315 15.0219 0 11.8552 0C8.68853 0 5.71145 1.23315 3.47233 3.47233C1.23315 5.71145 0 8.68853 0 11.8552C0 15.0218 1.23315 17.9989 3.47233 20.238C5.71145 22.4772 8.68859 23.7104 11.8552 23.7104C15.0218 23.7104 17.9989 22.4772 20.2381 20.238C22.4772 17.9989 23.7104 15.0218 23.7104 11.8552C23.7104 8.68853 22.4772 5.71145 20.2381 3.47233ZM11.8552 21.4482C6.56551 21.4482 2.26209 17.1448 2.26209 11.8552C2.26209 6.56551 6.56556 2.26209 11.8552 2.26209C17.1449 2.26209 21.4482 6.56551 21.4482 11.8552C21.4482 17.1448 17.1448 21.4482 11.8552 21.4482Z" fill="white"/>
<path d="M27.6687 26.0691L20.2333 18.6338C19.7916 18.1921 19.0755 18.1921 18.6338 18.6338C18.1921 19.0755 18.1921 19.7916 18.6338 20.2333L26.0691 27.6687C26.29 27.8896 26.5795 28 26.8689 28C27.1584 28 27.4479 27.8896 27.6687 27.6687C28.1104 27.227 28.1104 26.5109 27.6687 26.0691Z" fill="white"/>
</g>
<defs>
<clipPath id="clip0">
<rect width="28" height="28" fill="white"/>
</clipPath>
</defs>
</svg>
