<svg width="19" height="19" viewBox="0 0 19 19" fill="none" xmlns="http://www.w3.org/2000/svg">
<path d="M4.55153 4.60144H5.41544C5.7327 4.60144 5.99017 4.39888 5.99017 4.14508V0.455141C5.99017 0.202556 5.73514 0 5.41544 0H4.55153C4.23427 0 3.97559 0.203776 3.97559 0.455141V4.14508C3.97559 4.39888 4.23427 4.60144 4.55153 4.60144Z" fill="#C4C4C4"/>
<path d="M13.5835 4.60144H14.4462C14.7671 4.60144 15.0209 4.39888 15.0209 4.14508V0.455141C15.0209 0.202556 14.7671 0 14.4462 0H13.5835C13.2663 0 13.0088 0.203776 13.0088 0.455141V4.14508C13.01 4.39888 13.2663 4.60144 13.5835 4.60144Z" fill="#C4C4C4"/>
<path d="M17.9995 1.76073H15.7104V4.58675C15.7104 5.2176 15.143 5.73131 14.4451 5.73131H13.5824C12.8844 5.73131 12.3158 5.2176 12.3158 4.58675V1.76073H6.67837V4.58675C6.67837 5.2176 6.11097 5.73131 5.41178 5.73131H4.55153C3.85601 5.73131 3.28617 5.2176 3.28617 4.58675V1.76073H0.995819C0.615111 1.76073 0.305176 2.07188 0.305176 2.45381V18.3093C0.305176 18.6912 0.615111 19 0.728591 19H17.736C18.3827 19 18.6951 18.6912 18.6951 18.3093V2.45137C18.6938 2.07188 18.3815 1.76073 17.9995 1.76073ZM17.6286 17.4332C17.6286 18.1214 17.0356 18.0616 17.0356 18.0616H10.8356C10.8356 18.0616 14.6269 16.1617 17.6286 13.4638C17.6286 13.4638 17.6286 16.6376 17.6286 17.4332ZM17.7592 11.5603C17.4993 12.5865 16.9245 13.775 15.8764 12.9977C14.3487 11.8666 12.8429 10.9063 12.6489 13.1807C12.489 15.0965 8.94797 17.7016 8.1768 18.2459H1.45584C1.33504 18.2459 1.23986 18.1495 1.23986 18.0299V8.25594C1.23986 8.13514 1.33626 8.03874 1.45584 8.03874H17.5432C17.6615 8.03874 17.7604 8.13514 17.7604 8.25594L17.7592 11.5603Z" fill="#C4C4C4"/>
<path d="M6.66251 9.7251H3.97559V12.4108H6.66251V9.7251Z" fill="#C4C4C4"/>
<path d="M11.0795 9.7251H8.39502V12.4108H11.0795V9.7251Z" fill="#C4C4C4"/>
<path d="M6.66251 13.7994H3.97559V16.4851H6.66251V13.7994Z" fill="#C4C4C4"/>
<path d="M8.39502 16.4851H9.1723C9.7397 15.9531 10.5975 15.0733 11.0795 14.4693V13.7994H8.39502V16.4851Z" fill="#C4C4C4"/>
<path d="M12.6733 10.9917C12.9442 10.7269 13.27 10.6464 13.5629 10.6464C14.1156 10.6464 14.7245 10.9551 15.3578 11.3736V9.7251H12.6733V10.9917Z" fill="#C4C4C4"/>
</svg>
