<svg width="45" height="45" viewBox="0 0 45 45" fill="none" xmlns="http://www.w3.org/2000/svg">
<circle cx="22.5" cy="22.5" r="22.5" fill="#24221B"/>
<g clip-path="url(#clip0)">
<path d="M27.1786 14.6042C25.4992 12.9249 23.2664 12 20.8914 12C18.5164 12 16.2836 12.9249 14.6042 14.6042C12.9249 16.2836 12 18.5164 12 20.8914C12 23.2664 12.9249 25.4992 14.6042 27.1785C16.2836 28.8579 18.5164 29.7828 20.8914 29.7828C23.2664 29.7828 25.4992 28.8579 27.1786 27.1785C28.8579 25.4992 29.7828 23.2664 29.7828 20.8914C29.7828 18.5164 28.8579 16.2836 27.1786 14.6042ZM20.8914 28.0862C16.9241 28.0862 13.6966 24.8586 13.6966 20.8914C13.6966 16.9241 16.9242 13.6966 20.8914 13.6966C24.8586 13.6966 28.0862 16.9241 28.0862 20.8914C28.0862 24.8586 24.8586 28.0862 20.8914 28.0862Z" fill="white"/>
<path d="M32.7512 31.5519L27.1747 25.9753C26.8434 25.644 26.3063 25.644 25.975 25.9753C25.6438 26.3066 25.6438 26.8437 25.975 27.175L31.5515 32.7515C31.7171 32.9172 31.9343 33 32.1514 33C32.3685 33 32.5856 32.9172 32.7512 32.7515C33.0825 32.4202 33.0825 31.8831 32.7512 31.5519Z" fill="white"/>
</g>
<defs>
<clipPath id="clip0">
<rect width="21" height="21" fill="white" transform="translate(12 12)"/>
</clipPath>
</defs>
</svg>
